<svg width="120" height="117" viewBox="0 0 120 117" fill="none" xmlns="http://www.w3.org/2000/svg">
<path d="M115.75 58.5C115.75 90.6726 89.8924 116.75 58 116.75C26.1076 116.75 0.25 90.6726 0.25 58.5C0.25 26.3274 26.1076 0.25 58 0.25C89.8924 0.25 115.75 26.3274 115.75 58.5Z" stroke="#C78022" stroke-width="0.5"/>
<path d="M12.0642 40.2778C10.0359 42.323 12.5051 43.3012 13.387 41.7006L11.0942 54.2386L6.77303 54.6832C6.86122 53.4383 6.06754 53.0826 5.27387 53.5272L3.33377 54.5942C2.62827 55.1278 3.06918 56.7284 4.392 56.6395C6.97733 56.2776 8.41028 56.0169 10.9178 55.3946L4.74475 91.9415C4.83292 93.2753 6.2439 93.3642 6.50847 92.1193C7.91943 77.625 9.33041 70.6002 11.976 55.2167C17.9336 54.3139 21.2548 54.008 27.144 53.794C25.6003 60.6225 24.9756 64.4594 24.1457 71.3116C23.9411 73.0011 25.4685 73.2678 25.9094 72.1119C26.2662 64.1043 26.7856 60.0814 28.2023 53.6161H33.2289C34.9044 53.6161 34.8162 52.1045 33.2289 52.1045L28.4668 52.4602C29.4002 47.8517 30.0557 45.2429 31.4651 40.5446C32.6872 37.2369 31.461 36.8315 30.4998 37.0778C30.3177 37.1244 30.1551 37.2241 30.0065 37.3393L29.2866 37.8977C29.1538 38.0008 29.0431 38.1347 28.9961 38.2961C28.7181 39.2509 29.5033 39.6005 29.966 39.6554L27.4968 52.5491L12.3288 53.9718C13.3758 47.3437 15.273 40.5901 15.8562 38.4994C16.5617 36.4364 14.357 36.5431 13.9161 37.6991C13.2812 39.0507 12.417 39.9814 12.0642 40.2778Z" fill="white"/>
<path d="M36.3154 53.8829C36.4917 52.549 38.7846 52.7269 38.2555 54.6832C37.9428 55.8392 36.0696 55.7415 36.3154 53.8829Z" fill="white"/>
<path d="M34.2871 62.0637L35.0808 58.1511C35.6981 56.8173 37.55 57.6176 36.6681 59.2182C35.3453 61.6191 33.9343 66.5542 37.4618 65.4427C40.8481 64.3757 43.5172 62.2119 44.4285 61.2634L44.8694 56.1948C44.7812 53.8829 46.8977 54.4164 46.7213 56.2838L45.7513 61.6191C46.088 60.4305 46.2804 59.9296 46.9859 59.1293C47.7796 58.329 48.4321 57.1374 51.7479 58.0622C55.0637 58.987 57.3037 59.2123 58.2737 58.9514C59.5965 58.5957 60.0374 59.5739 58.5383 59.7517C55.1872 59.8406 53.4235 59.5739 51.7479 59.2182C50.4915 58.9515 49.4551 59.0403 49.0142 59.2182C46.2804 60.3742 45.7513 66.1541 45.3985 68.1104C45.0458 70.0667 42.2238 70.2445 43.1939 67.8436C43.9699 65.9229 44.1052 63.605 44.0758 62.6861C43.3997 63.3975 41.1303 65.1404 37.4618 66.4209C33.7932 67.7013 33.8168 64.0496 34.2871 62.0637Z" fill="white"/>
<path fill-rule="evenodd" clip-rule="evenodd" d="M59.1556 66.1541C55.8045 63.4864 63.3885 55.2167 65.5932 59.7517C66.8631 58.9692 67.4745 60.0185 67.6215 60.6409C67.4804 61.4235 67.6802 62.5083 67.7978 62.9529C68.6444 66.2252 73.5593 63.2493 75.9109 61.3523C76.2637 61.4946 76.4107 61.293 76.4401 61.1745C79.1915 56.8351 81.2903 57.4694 81.9958 58.329C83.4303 60.5321 79.8793 63.2197 77.5865 62.9529C77.1456 65.9762 84.2735 63.3979 87.3752 61.1745L88.257 58.8625C89.274 54.2318 89.8972 51.6161 91.2553 46.858C83.7064 47.7568 77.6486 48.1492 76.2637 47.9251C73.8997 47.5427 73.6156 46.5192 73.8827 45.791C74.1745 45.2266 74.3743 44.7947 74.8527 44.5461C76.1269 43.8839 76.9692 44.9907 76.2637 46.1467C77.4167 46.2846 77.7629 46.5023 80.7612 46.4348C83.844 46.5382 86.8472 46.4056 91.5199 45.9688L93.0191 41.256C93.7246 39.1811 95.2237 35.3365 97.0756 36.0985C98.3784 36.6345 97.2165 39.8181 96.1373 42.7752C95.7554 43.8216 95.3838 44.8397 95.1355 45.702L98.663 45.4353C99.8689 42.0161 102.279 36.0096 104.571 37.1655C106.688 38.2326 105.718 42.6194 104.924 44.9018C110.886 44.4052 115.042 43.9724 119.069 43.8519C119.474 43.8397 119.871 44.0716 119.96 44.4677C120.039 44.8211 120.001 45.0976 119.845 45.4177C119.781 45.5493 119.677 45.6569 119.555 45.7379C118.356 46.5354 117.829 46.6002 117.27 45.702L104.571 46.1467C103.097 52.7055 97.3241 62.9154 95.1355 63.7532H94.6946L94.43 67.6658C98.3198 61.5644 100.425 58.306 101.749 57.7065C103.443 57.3508 103.807 60.226 103.778 61.708C103.848 64.6958 106.629 63.0715 108.011 61.8858C109.069 61.708 110.145 61.7258 106.688 63.931C103.231 66.1363 102.19 62.5379 102.102 60.4631C102.129 59.6274 101.926 58.9514 101.044 60.1963C100.988 60.2761 100.895 60.4046 100.772 60.5744L100.771 60.5753C99.7192 62.0313 96.4784 66.5165 95.1355 69.3553C93.9009 70.6002 92.8427 70.5113 92.6663 68.7328C93.4424 61.4057 96.5465 50.7706 98.222 46.5023L94.6946 46.6802C91.929 55.4135 90.7657 58.7437 89.0507 61.9748L88.4334 61.9748C87.6877 68.5339 87.3376 72.0274 86.846 77.8918C86.7974 79.4811 85.0241 79.8496 85.1705 77.7139C85.7254 72.2532 86.3152 68.6818 87.5515 61.9748C78.292 67.8436 75.7959 65.3872 75.7346 62.9529C68.6093 68.3009 66.2111 64.4297 65.8577 61.708C63.9176 64.6424 60.5959 67.3007 59.1556 66.1541ZM60.3902 64.3757C60.3279 63.6394 61.713 60.0185 64.1822 60.9077C63.5906 61.9136 60.8311 64.5535 60.3902 64.3757ZM93.3718 46.6802H92.4018C91.1006 50.5757 90.551 52.648 89.668 56.2838C91.1223 52.8444 91.933 50.7667 93.3718 46.6802ZM92.6663 45.9688H93.5482L95.2237 40.2778C94.0033 42.216 93.39 43.683 92.6663 45.9688ZM102.057 45.1537C101.253 45.2399 100.586 45.3112 99.7212 45.3464C101.772 41.332 102.797 39.4294 103.866 38.8551C104.678 39.1937 104.575 40.6858 103.69 44.9907C103.052 45.0472 102.531 45.103 102.057 45.1537ZM99.2803 46.3245C100.786 46.1856 101.692 46.1612 103.425 46.2356C101 53.6074 97.6047 59.5739 95.1355 61.5302C94.871 60.1963 96.9299 51.4879 99.2803 46.3245ZM78.5565 60.9966C78.5174 60.7763 79.5613 59.5937 80.1439 59.7517C80.6405 59.8864 79.262 60.9966 78.5565 60.9966Z" fill="white"/>
<path d="M24.2261 82.8091C24.2261 82.7047 24.2103 82.6126 24.1786 82.5328C24.1489 82.451 24.0954 82.3773 24.0181 82.3118C23.9429 82.2464 23.8379 82.184 23.7032 82.1246C23.5705 82.0653 23.4021 82.0049 23.1981 81.9435C22.9842 81.878 22.791 81.8054 22.6187 81.7256C22.4464 81.6437 22.2988 81.5506 22.176 81.4463C22.0532 81.3419 21.9591 81.2222 21.8937 81.0872C21.8284 80.9521 21.7957 80.7976 21.7957 80.6237C21.7957 80.4498 21.8304 80.2891 21.8997 80.1418C21.969 79.9945 22.0681 79.8666 22.1968 79.7581C22.3275 79.6476 22.483 79.5617 22.6633 79.5003C22.8435 79.4389 23.0446 79.4082 23.2664 79.4082C23.5913 79.4082 23.8666 79.4727 24.0924 79.6016C24.3202 79.7285 24.4935 79.8952 24.6124 80.1019C24.7312 80.3065 24.7907 80.5255 24.7907 80.7587H24.2202C24.2202 80.591 24.1855 80.4426 24.1162 80.3137C24.0469 80.1827 23.9419 80.0804 23.8013 80.0068C23.6606 79.931 23.4823 79.8932 23.2664 79.8932C23.0624 79.8932 22.894 79.9249 22.7613 79.9883C22.6286 80.0518 22.5296 80.1377 22.4642 80.2462C22.4008 80.3546 22.3691 80.4784 22.3691 80.6176C22.3691 80.7117 22.388 80.7976 22.4256 80.8754C22.4652 80.9511 22.5256 81.0217 22.6068 81.0872C22.69 81.1526 22.795 81.213 22.9218 81.2683C23.0505 81.3235 23.204 81.3767 23.3823 81.4279C23.6279 81.4995 23.8399 81.5793 24.0181 81.6673C24.1964 81.7553 24.343 81.8545 24.4579 81.965C24.5748 82.0735 24.6609 82.1973 24.7164 82.3364C24.7738 82.4735 24.8025 82.629 24.8025 82.8029C24.8025 82.9851 24.7669 83.1498 24.6956 83.2971C24.6243 83.4444 24.5223 83.5703 24.3895 83.6746C24.2568 83.779 24.0974 83.8598 23.9112 83.9171C23.727 83.9724 23.521 84 23.2932 84C23.0931 84 22.896 83.9714 22.7019 83.9141C22.5098 83.8568 22.3345 83.7708 22.176 83.6562C22.0195 83.5416 21.8937 83.4005 21.7987 83.2327C21.7056 83.0628 21.659 82.8664 21.659 82.6433H22.2295C22.2295 82.7968 22.2582 82.9288 22.3157 83.0393C22.3731 83.1477 22.4513 83.2378 22.5504 83.3094C22.6514 83.381 22.7653 83.4342 22.8921 83.469C23.0208 83.5017 23.1545 83.5181 23.2932 83.5181C23.4932 83.5181 23.6626 83.4895 23.8013 83.4322C23.9399 83.3749 24.0449 83.293 24.1162 83.1866C24.1895 83.0802 24.2261 82.9544 24.2261 82.8091Z" fill="white"/>
<path d="M32.9033 83.4567V83.9386H30.7403V83.4567H32.9033ZM30.8532 79.4696V83.9386H30.2798V79.4696H30.8532Z" fill="white"/>
<path d="M39.9672 79.8656L38.535 83.9386H37.9497L39.5987 79.4696H39.9761L39.9672 79.8656ZM41.1675 83.9386L39.7324 79.8656L39.7235 79.4696H40.1009L41.7558 83.9386H41.1675ZM41.0932 82.2842V82.7692H38.6628V82.2842H41.0932Z" fill="white"/>
<path d="M50.4092 79.4696V83.9386H49.8328L47.6549 80.4917V83.9386H47.0815V79.4696H47.6549L49.8417 82.9257V79.4696H50.4092Z" fill="white"/>
<path d="M57.3423 83.9386H56.4391L56.445 83.4567H57.3423C57.6513 83.4567 57.9088 83.3902 58.1149 83.2572C58.3209 83.1222 58.4754 82.9339 58.5784 82.6924C58.6833 82.4489 58.7358 82.1645 58.7358 81.8392V81.566C58.7358 81.3102 58.7061 81.0831 58.6467 80.8846C58.5873 80.6841 58.5001 80.5152 58.3852 80.3781C58.2703 80.239 58.1297 80.1336 57.9633 80.062C57.7989 79.9904 57.6097 79.9546 57.3958 79.9546H56.4213V79.4696H57.3958C57.6791 79.4696 57.9376 79.5187 58.1713 79.6169C58.405 79.7131 58.6061 79.8533 58.7745 80.0374C58.9448 80.2196 59.0755 80.4406 59.1667 80.7004C59.2578 80.9583 59.3033 81.2488 59.3033 81.5721V81.8392C59.3033 82.1625 59.2578 82.4541 59.1667 82.7139C59.0755 82.9718 58.9438 83.1917 58.7715 83.3738C58.6011 83.556 58.3951 83.6961 58.1535 83.7944C57.9138 83.8905 57.6434 83.9386 57.3423 83.9386ZM56.7451 79.4696V83.9386H56.1717V79.4696H56.7451Z" fill="white"/>
<path d="M73.9926 81.391V81.8729H71.6513V81.391H73.9926ZM71.7404 79.4696V83.9386H71.1669V79.4696H71.7404ZM74.4917 79.4696V83.9386H73.9212V79.4696H74.4917Z" fill="white"/>
<path d="M83.5879 81.5629V81.8453C83.5879 82.1809 83.5473 82.4817 83.4661 82.7477C83.3848 83.0137 83.268 83.2398 83.1155 83.426C82.9629 83.6122 82.7797 83.7545 82.5658 83.8527C82.3538 83.9509 82.1161 84 81.8527 84C81.5972 84 81.3625 83.9509 81.1485 83.8527C80.9366 83.7545 80.7524 83.6122 80.5959 83.426C80.4414 83.2398 80.3215 83.0137 80.2364 82.7477C80.1512 82.4817 80.1086 82.1809 80.1086 81.8453V81.5629C80.1086 81.2273 80.1502 80.9276 80.2334 80.6636C80.3186 80.3976 80.4384 80.1715 80.5929 79.9853C80.7474 79.797 80.9306 79.6538 81.1426 79.5556C81.3565 79.4573 81.5912 79.4082 81.8468 79.4082C82.1102 79.4082 82.3479 79.4573 82.5598 79.5556C82.7738 79.6538 82.957 79.797 83.1095 79.9853C83.264 80.1715 83.3819 80.3976 83.4631 80.6636C83.5463 80.9276 83.5879 81.2273 83.5879 81.5629ZM83.0204 81.8453V81.5568C83.0204 81.2908 82.9936 81.0555 82.9402 80.8508C82.8887 80.6462 82.8124 80.4743 82.7114 80.3352C82.6104 80.196 82.4866 80.0906 82.34 80.019C82.1954 79.9474 82.031 79.9116 81.8468 79.9116C81.6685 79.9116 81.5071 79.9474 81.3625 80.019C81.2198 80.0906 81.097 80.196 80.994 80.3352C80.893 80.4743 80.8148 80.6462 80.7593 80.8508C80.7038 81.0555 80.6761 81.2908 80.6761 81.5568V81.8453C80.6761 82.1134 80.7038 82.3507 80.7593 82.5574C80.8148 82.762 80.894 82.9349 80.997 83.0761C81.102 83.2153 81.2258 83.3206 81.3684 83.3923C81.513 83.4639 81.6744 83.4997 81.8527 83.4997C82.0389 83.4997 82.2043 83.4639 82.3489 83.3923C82.4935 83.3206 82.6153 83.2153 82.7143 83.0761C82.8154 82.9349 82.8916 82.762 82.9431 82.5574C82.9946 82.3507 83.0204 82.1134 83.0204 81.8453Z" fill="white"/>
<path d="M89.3741 79.4696H89.9297L91.347 83.113L92.7613 79.4696H93.3198L91.5609 83.9386H91.1271L89.3741 79.4696ZM89.1928 79.4696H89.6831L89.7633 82.1952V83.9386H89.1928V79.4696ZM93.0079 79.4696H93.4981V83.9386H92.9276V82.1952L93.0079 79.4696Z" fill="white"/>
<path d="M102 83.4567V83.9386H99.7092V83.4567H102ZM99.8251 79.4696V83.9386H99.2516V79.4696H99.8251ZM101.697 81.391V81.8729H99.7092V81.391H101.697ZM101.97 79.4696V79.9546H99.7092V79.4696H101.97Z" fill="white"/>
<path d="M14.5734 79V83.469H14V79H14.5734Z" fill="white"/>
</svg>
